<?xml version="1.0" encoding="UTF-8" standalone="no"?>
<!-- Generated by graphviz version 2.36.0 (20140111.2315)
 -->

<!-- Title: %3 Pages: 1 -->

<svg
   xmlns:dc="http://purl.org/dc/elements/1.1/"
   xmlns:cc="http://creativecommons.org/ns#"
   xmlns:rdf="http://www.w3.org/1999/02/22-rdf-syntax-ns#"
   xmlns:svg="http://www.w3.org/2000/svg"
   xmlns="http://www.w3.org/2000/svg"
   xmlns:sodipodi="http://sodipodi.sourceforge.net/DTD/sodipodi-0.dtd"
   xmlns:inkscape="http://www.inkscape.org/namespaces/inkscape"
   width="772pt"
   height="864pt"
   viewBox="0.00 0.00 771.94 864.00"
   id="svg2"
   version="1.1"
   inkscape:version="0.48.4 r9939"
   sodipodi:docname="rdfs_graph.svg">
  <metadata
     id="metadata516">
    <rdf:RDF>
      <cc:Work
         rdf:about="">
        <dc:format>image/svg+xml</dc:format>
        <dc:type
           rdf:resource="http://purl.org/dc/dcmitype/StillImage" />
      </cc:Work>
    </rdf:RDF>
  </metadata>
  <defs
     id="defs514" />
  <sodipodi:namedview
     pagecolor="#ffffff"
     bordercolor="#666666"
     borderopacity="1"
     objecttolerance="10"
     gridtolerance="10"
     guidetolerance="10"
     inkscape:pageopacity="0"
     inkscape:pageshadow="2"
     inkscape:window-width="1920"
     inkscape:window-height="1056"
     id="namedview512"
     showgrid="false"
     inkscape:zoom="0.87407407"
     inkscape:cx="641.15933"
     inkscape:cy="789.31433"
     inkscape:window-x="0"
     inkscape:window-y="24"
     inkscape:window-maximized="1"
     inkscape:current-layer="svg2" />
  <g
     class="node"
     id="node1"
     transform="translate(4,860)">
    <title
       id="title10">PRP-\nDOM</title>
    <ellipse
       style="fill:#d3d3d3;stroke:#d3d3d3"
       sodipodi:ry="34.7971"
       sodipodi:rx="34.4716"
       sodipodi:cy="-715"
       sodipodi:cx="522.94397"
       d="m 557.41557,-715 c 0,19.21791 -15.43346,34.7971 -34.4716,34.7971 -19.03814,0 -34.4716,-15.57919 -34.4716,-34.7971 0,-19.21791 15.43346,-34.7971 34.4716,-34.7971 19.03814,0 34.4716,15.57919 34.4716,34.7971 z"
       id="ellipse12"
       ry="34.7971"
       rx="34.4716"
       cy="-715"
       cx="522.94397" />
    <text
       style="font-size:14px;text-anchor:middle;font-family:'Times,serif'"
       id="text14"
       font-size="14.00"
       y="-718.79999"
       x="522.94397">PRP-</text>
    <text
       style="font-size:14px;text-anchor:middle;font-family:'Times,serif'"
       id="text16"
       font-size="14.00"
       y="-703.79999"
       x="522.94397">DOM</text>
  </g>
  <g
     class="node"
     id="node5"
     transform="translate(4,860)">
    <title
       id="title19">CAX-\nSCO</title>
    <ellipse
       style="fill:none;stroke:#000000"
       sodipodi:ry="35.2113"
       sodipodi:rx="35.034302"
       sodipodi:cy="-606"
       sodipodi:cx="264.944"
       d="m 299.9783,-606 c 0,19.44666 -15.68539,35.2113 -35.0343,35.2113 -19.34891,0 -35.0343,-15.76464 -35.0343,-35.2113 0,-19.44666 15.68539,-35.2113 35.0343,-35.2113 19.34891,0 35.0343,15.76464 35.0343,35.2113 z"
       id="ellipse21"
       ry="35.2113"
       rx="35.034302"
       cy="-606"
       cx="264.944" />
    <text
       style="font-size:14px;text-anchor:middle;font-family:'Times,serif'"
       id="text23"
       font-size="14.00"
       y="-609.79999"
       x="264.944">CAX-</text>
    <text
       style="font-size:14px;text-anchor:middle;font-family:'Times,serif'"
       id="text25"
       font-size="14.00"
       y="-594.79999"
       x="264.944">SCO</text>
  </g>
  <g
     class="edge"
     id="edge5"
     transform="translate(4,860)">
    <title
       id="title28">PRP-\nDOM-&gt;CAX-\nSCO</title>
    <path
       style="fill:none;stroke:#000000"
       inkscape:connector-curvature="0"
       id="path30"
       d="m 491.489,-700.147 c -15.485,6.766 -34.455,14.975 -51.545,22.147 -45.183,18.961 -97.252,39.981 -132.769,54.194" />
    <polygon
       style="fill:#000000;stroke:#000000"
       id="polygon32"
       points="305.602,-626.947 308.2,-620.447 308.2,-620.447 297.615,-619.985 " />
  </g>
  <g
     class="node"
     id="node6"
     transform="translate(4,860)">
    <title
       id="title35">RDFS8</title>
    <ellipse
       style="fill:none;stroke:#000000"
       sodipodi:ry="37.093498"
       sodipodi:rx="37.070099"
       sodipodi:cy="-497"
       sodipodi:cx="387.944"
       d="m 425.0141,-497 c 0,20.48617 -16.59685,37.0935 -37.0701,37.0935 -20.47325,0 -37.0701,-16.60733 -37.0701,-37.0935 0,-20.48617 16.59685,-37.0935 37.0701,-37.0935 20.47325,0 37.0701,16.60733 37.0701,37.0935 z"
       id="ellipse37"
       ry="37.093498"
       rx="37.070099"
       cy="-497"
       cx="387.944" />
    <text
       style="font-size:14px;text-anchor:middle;font-family:'Times,serif'"
       id="text39"
       font-size="14.00"
       y="-493.29999"
       x="387.944">RDFS8</text>
  </g>
  <g
     class="edge"
     id="edge6"
     transform="translate(4,860)">
    <title
       id="title42">PRP-\nDOM-&gt;RDFS8</title>
    <path
       style="fill:none;stroke:#000000"
       inkscape:connector-curvature="0"
       id="path44"
       d="m 517.017,-680.803 c -6.681,30.783 -19.782,76.823 -43.073,110.803 -12.281,17.917 -30.189,33.891 -46.488,46.213" />
    <polygon
       style="fill:#000000;stroke:#000000"
       id="polygon46"
       points="425.121,-526.415 429.254,-520.766 429.254,-520.766 419.117,-517.685 " />
  </g>
  <g
     class="node"
     id="node7"
     transform="translate(4,860)">
    <title
       id="title49">RDFS12</title>
    <ellipse
       style="fill:none;stroke:#000000"
       sodipodi:ry="41.692799"
       sodipodi:rx="41.394001"
       sodipodi:cy="-382"
       sodipodi:cx="491.944"
       d="m 533.338,-382 c 0,23.0263 -18.53272,41.6928 -41.394,41.6928 -22.86128,0 -41.394,-18.6665 -41.394,-41.6928 0,-23.0263 18.53272,-41.6928 41.394,-41.6928 22.86128,0 41.394,18.6665 41.394,41.6928 z"
       id="ellipse51"
       ry="41.692799"
       rx="41.394001"
       cy="-382"
       cx="491.944" />
    <text
       style="font-size:14px;text-anchor:middle;font-family:'Times,serif'"
       id="text53"
       font-size="14.00"
       y="-378.29999"
       x="491.944">RDFS12</text>
  </g>
  <g
     class="edge"
     id="edge7"
     transform="translate(4,860)">
    <title
       id="title56">PRP-\nDOM-&gt;RDFS12</title>
    <path
       style="fill:none;stroke:#000000"
       inkscape:connector-curvature="0"
       id="path58"
       d="m 549.641,-693.089 c 14.315,12.97 30.565,30.97 38.303,51.089 11.488,29.867 3.842,40.231 0,72 -6.044,49.976 -3.501,65.481 -27,110 -8.049,15.249 -19.773,29.896 -31.281,42.246" />
    <polygon
       style="fill:#000000;stroke:#000000"
       id="polygon60"
       points="526.975,-420.008 532.018,-415.153 532.018,-415.153 522.561,-410.377 " />
  </g>
  <g
     class="node"
     id="node8"
     transform="translate(4,860)">
    <title
       id="title63">RDFS13</title>
    <ellipse
       style="fill:none;stroke:#000000"
       sodipodi:ry="41.692799"
       sodipodi:rx="41.394001"
       sodipodi:cy="-382"
       sodipodi:cx="274.944"
       d="m 316.338,-382 c 0,23.0263 -18.53272,41.6928 -41.394,41.6928 -22.86128,0 -41.394,-18.6665 -41.394,-41.6928 0,-23.0263 18.53272,-41.6928 41.394,-41.6928 22.86128,0 41.394,18.6665 41.394,41.6928 z"
       id="ellipse65"
       ry="41.692799"
       rx="41.394001"
       cy="-382"
       cx="274.944" />
    <text
       style="font-size:14px;text-anchor:middle;font-family:'Times,serif'"
       id="text67"
       font-size="14.00"
       y="-378.29999"
       x="274.944">RDFS13</text>
  </g>
  <g
     class="edge"
     id="edge8"
     transform="translate(4,860)">
    <title
       id="title70">PRP-\nDOM-&gt;RDFS13</title>
    <path
       style="fill:none;stroke:#000000"
       inkscape:connector-curvature="0"
       id="path72"
       d="m 523.682,-680.218 c -0.746,54.419 -10.529,161.331 -71.738,220.218 -35.248,33.911 -87.839,54.183 -126.54,65.346" />
    <polygon
       style="fill:#000000;stroke:#000000"
       id="polygon74"
       points="324.086,-397.92 325.956,-391.175 325.956,-391.175 315.384,-391.876 " />
  </g>
  <g
     class="node"
     id="node2"
     transform="translate(4,860)">
    <title
       id="title77">PRP-\nRNG</title>
    <ellipse
       style="fill:#d3d3d3;stroke:#d3d3d3"
       sodipodi:ry="31.6406"
       sodipodi:rx="31.233"
       sodipodi:cy="-715"
       sodipodi:cx="399.944"
       d="m 431.177,-715 c 0,17.47462 -13.98349,31.6406 -31.233,31.6406 -17.24951,0 -31.233,-14.16598 -31.233,-31.6406 0,-17.47462 13.98349,-31.6406 31.233,-31.6406 17.24951,0 31.233,14.16598 31.233,31.6406 z"
       id="ellipse79"
       ry="31.6406"
       rx="31.233"
       cy="-715"
       cx="399.944" />
    <text
       style="font-size:14px;text-anchor:middle;font-family:'Times,serif'"
       id="text81"
       font-size="14.00"
       y="-718.79999"
       x="399.944">PRP-</text>
    <text
       style="font-size:14px;text-anchor:middle;font-family:'Times,serif'"
       id="text83"
       font-size="14.00"
       y="-703.79999"
       x="399.944">RNG</text>
  </g>
  <g
     class="edge"
     id="edge9"
     transform="translate(4,860)">
    <title
       id="title86">PRP-\nRNG-&gt;CAX-\nSCO</title>
    <path
       style="fill:none;stroke:#000000"
       inkscape:connector-curvature="0"
       id="path88"
       d="m 376.784,-693.137 c -5.758,5.039 -11.965,10.35 -17.84,15.137 -18.53,15.099 -39.733,31.21 -57.306,44.262" />
    <polygon
       style="fill:#000000;stroke:#000000"
       id="polygon90"
       points="299.29,-636.355 303.452,-630.726 303.452,-630.726 293.33,-627.595 " />
  </g>
  <g
     class="edge"
     id="edge10"
     transform="translate(4,860)">
    <title
       id="title93">PRP-\nRNG-&gt;RDFS8</title>
    <path
       style="fill:none;stroke:#000000"
       inkscape:connector-curvature="0"
       id="path95"
       d="m 398.225,-683.052 c -2.013,36.24 -5.369,96.634 -7.696,138.526" />
    <polygon
       style="fill:#000000;stroke:#000000"
       id="polygon97"
       points="387.021,-544.479 394.01,-544.09 394.01,-544.09 389.961,-534.3 " />
  </g>
  <g
     class="edge"
     id="edge11"
     transform="translate(4,860)">
    <title
       id="title100">PRP-\nRNG-&gt;RDFS12</title>
    <path
       style="fill:none;stroke:#000000"
       inkscape:connector-curvature="0"
       id="path102"
       d="m 416.405,-687.802 c 20.365,33.977 54.11,95.782 68.539,153.802 8.131,32.692 9.867,70.564 9.578,100.202" />
    <polygon
       style="fill:#000000;stroke:#000000"
       id="polygon104"
       points="491.021,-433.741 498.02,-433.616 498.02,-433.616 494.343,-423.68 " />
  </g>
  <g
     class="edge"
     id="edge12"
     transform="translate(4,860)">
    <title
       id="title107">PRP-\nRNG-&gt;RDFS13</title>
    <path
       style="fill:none;stroke:#000000"
       inkscape:connector-curvature="0"
       id="path109"
       d="m 378.378,-691.761 c -5.9,5.118 -12.573,10.12 -19.434,13.761 -55.991,29.712 -99.247,-14.16 -138,36 -25.108,32.499 11.209,145.968 35.389,211.433" />
    <polygon
       style="fill:#000000;stroke:#000000"
       id="polygon111"
       points="253.172,-429.025 259.73,-431.475 259.73,-431.475 259.951,-420.882 " />
  </g>
  <g
     class="node"
     id="node3"
     transform="translate(4,860)">
    <title
       id="title114">PRP-\nSPO1</title>
    <ellipse
       style="fill:#d3d3d3;stroke:#d3d3d3"
       sodipodi:ry="33.882401"
       sodipodi:rx="33.412601"
       sodipodi:cy="-822"
       sodipodi:cx="399.944"
       d="m 433.3566,-822 c 0,18.71273 -14.95933,33.8824 -33.4126,33.8824 -18.45327,0 -33.4126,-15.16967 -33.4126,-33.8824 0,-18.71273 14.95933,-33.8824 33.4126,-33.8824 18.45327,0 33.4126,15.16967 33.4126,33.8824 z"
       id="ellipse116"
       ry="33.882401"
       rx="33.412601"
       cy="-822"
       cx="399.944" />
    <text
       style="font-size:14px;text-anchor:middle;font-family:'Times,serif'"
       id="text118"
       font-size="14.00"
       y="-825.79999"
       x="399.944">PRP-</text>
    <text
       style="font-size:14px;text-anchor:middle;font-family:'Times,serif'"
       id="text120"
       font-size="14.00"
       y="-810.79999"
       x="399.944">SPO1</text>
  </g>
  <g
     class="edge"
     id="edge43"
     transform="translate(4,860)">
    <title
       id="title123">PRP-\nSPO1-&gt;PRP-\nDOM</title>
    <path
       style="fill:none;stroke:#000000"
       inkscape:connector-curvature="0"
       id="path125"
       d="m 425.132,-799.498 c 18.49,15.784 43.803,37.392 64.045,54.672" />
    <polygon
       style="fill:#000000;stroke:#000000"
       id="polygon127"
       points="487.064,-742.027 491.609,-747.351 491.609,-747.351 496.942,-738.197 " />
  </g>
  <g
     class="edge"
     id="edge44"
     transform="translate(4,860)">
    <title
       id="title130">PRP-\nSPO1-&gt;PRP-\nRNG</title>
    <path
       style="fill:none;stroke:#000000"
       inkscape:connector-curvature="0"
       id="path132"
       d="m 399.944,-787.777 c 0,9.721 0,20.466 0,30.617" />
    <polygon
       style="fill:#000000;stroke:#000000"
       id="polygon134"
       points="396.444,-756.865 403.444,-756.865 403.444,-756.865 399.944,-746.865 " />
  </g>
  <g
     class="node"
     id="node4"
     transform="translate(4,860)">
    <title
       id="title137">RDFS4</title>
    <ellipse
       style="fill:#d3d3d3;stroke:#d3d3d3"
       sodipodi:ry="37.093498"
       sodipodi:rx="37.070099"
       sodipodi:cy="-715"
       sodipodi:cx="312.944"
       d="m 350.0141,-715 c 0,20.48617 -16.59685,37.0935 -37.0701,37.0935 -20.47325,0 -37.0701,-16.60733 -37.0701,-37.0935 0,-20.48617 16.59685,-37.0935 37.0701,-37.0935 20.47325,0 37.0701,16.60733 37.0701,37.0935 z"
       id="ellipse139"
       ry="37.093498"
       rx="37.070099"
       cy="-715"
       cx="312.944" />
    <text
       style="font-size:14px;text-anchor:middle;font-family:'Times,serif'"
       id="text141"
       font-size="14.00"
       y="-711.29999"
       x="312.944">RDFS4</text>
  </g>
  <g
     class="edge"
     id="edge45"
     transform="translate(4,860)">
    <title
       id="title144">PRP-\nSPO1-&gt;RDFS4</title>
    <path
       style="fill:none;stroke:#000000"
       inkscape:connector-curvature="0"
       id="path146"
       d="m 378.884,-795.582 c -10.862,13.109 -24.296,29.322 -36.197,43.686" />
    <polygon
       style="fill:#000000;stroke:#000000"
       id="polygon148"
       points="339.944,-754.071 345.334,-749.605 345.334,-749.605 336.259,-744.138 " />
  </g>
  <g
     class="edge"
     id="edge46"
     transform="translate(4,860)">
    <title
       id="title151">PRP-\nSPO1-&gt;CAX-\nSCO</title>
    <path
       style="fill:none;stroke:#000000"
       inkscape:connector-curvature="0"
       id="path153"
       d="m 367.085,-814.109 c -31.792,8.593 -78.28,26.692 -100.141,62.109 -18.593,30.123 -17.365,70.897 -12.481,101.536" />
    <polygon
       style="fill:#000000;stroke:#000000"
       id="polygon155"
       points="251.04,-649.724 257.932,-650.95 257.932,-650.95 256.237,-640.492 " />
  </g>
  <g
     class="edge"
     id="edge47"
     transform="translate(4,860)">
    <title
       id="title158">PRP-\nSPO1-&gt;RDFS8</title>
    <path
       style="fill:none;stroke:#000000"
       inkscape:connector-curvature="0"
       id="path160"
       d="m 419.852,-794.281 c 7.906,12.226 16.065,27.305 20.092,42.281 19.875,73.913 -9.595,161.699 -31.626,212.319" />
    <polygon
       style="fill:#000000;stroke:#000000"
       id="polygon162"
       points="405.042,-540.929 411.435,-538.078 411.435,-538.078 404.166,-530.37 " />
  </g>
  <g
     class="edge"
     id="edge48"
     transform="translate(4,860)">
    <title
       id="title165">PRP-\nSPO1-&gt;RDFS12</title>
    <path
       style="fill:none;stroke:#000000"
       inkscape:connector-curvature="0"
       id="path167"
       d="m 433.126,-815.441 c 37.136,7.88 96.805,25.763 132.818,63.441 35.945,37.606 30.974,58.768 40,110 14.111,80.095 22.139,111.844 -19,182 -12.2,20.805 -32.279,38.308 -50.843,51.343" />
    <polygon
       style="fill:#000000;stroke:#000000"
       id="polygon169"
       points="534.037,-411.487 537.957,-405.687 537.957,-405.687 527.712,-402.987 " />
  </g>
  <g
     class="edge"
     id="edge49"
     transform="translate(4,860)">
    <title
       id="title172">PRP-\nSPO1-&gt;RDFS13</title>
    <path
       style="fill:none;stroke:#000000"
       inkscape:connector-curvature="0"
       id="path174"
       d="m 368.033,-811.695 c -32.624,10.634 -83.557,30.438 -120.089,59.695 -47.804,38.284 -63.548,51.926 -83,110 -25.737,76.841 -28.185,111.068 11,182 12.199,22.081 33.632,39.947 53.444,52.89" />
    <polygon
       style="fill:#000000;stroke:#000000"
       id="polygon176"
       points="227.709,-404.032 231.424,-409.965 231.424,-409.965 238.041,-401.69 " />
  </g>
  <g
     class="node"
     id="node9"
     transform="translate(4,860)">
    <title
       id="title179">SCM-\nSCO</title>
    <ellipse
       style="fill:none;stroke:#000000"
       sodipodi:ry="35.2113"
       sodipodi:rx="35.034302"
       sodipodi:cy="-268"
       sodipodi:cx="191.944"
       d="m 226.9783,-268 c 0,19.44666 -15.68539,35.2113 -35.0343,35.2113 -19.34891,0 -35.0343,-15.76464 -35.0343,-35.2113 0,-19.44666 15.68539,-35.2113 35.0343,-35.2113 19.34891,0 35.0343,15.76464 35.0343,35.2113 z"
       id="ellipse181"
       ry="35.2113"
       rx="35.034302"
       cy="-268"
       cx="191.944" />
    <text
       style="font-size:14px;text-anchor:middle;font-family:'Times,serif'"
       id="text183"
       font-size="14.00"
       y="-271.79999"
       x="191.944">SCM-</text>
    <text
       style="font-size:14px;text-anchor:middle;font-family:'Times,serif'"
       id="text185"
       font-size="14.00"
       y="-256.79999"
       x="191.944">SCO</text>
  </g>
  <g
     class="edge"
     id="edge50"
     transform="translate(4,860)">
    <title
       id="title188">PRP-\nSPO1-&gt;SCM-\nSCO</title>
    <path
       style="fill:none;stroke:#000000"
       inkscape:connector-curvature="0"
       id="path190"
       d="m 366.468,-817.657 c -46.702,6.107 -132.223,22.676 -190.524,65.657 -62.809,46.304 -98.9998,66.967 -98.9998,145 0,0 0,0 0,111 0,75.38 51.0858,151.117 85.1598,193.25" />
    <polygon
       style="fill:#000000;stroke:#000000"
       id="polygon192"
       points="159.611,-300.272 165.013,-304.724 165.013,-304.724 168.672,-294.782 " />
  </g>
  <g
     class="node"
     id="node10"
     transform="translate(4,860)">
    <title
       id="title195">SCM-\nDOM1</title>
    <ellipse
       style="fill:none;stroke:#000000"
       sodipodi:ry="39.696201"
       sodipodi:rx="39.3965"
       sodipodi:cy="-156"
       sodipodi:cx="227.944"
       d="m 267.3405,-156 c 0,21.92361 -17.63841,39.6962 -39.3965,39.6962 -21.75809,0 -39.3965,-17.77259 -39.3965,-39.6962 0,-21.92361 17.63841,-39.6962 39.3965,-39.6962 21.75809,0 39.3965,17.77259 39.3965,39.6962 z"
       id="ellipse197"
       ry="39.696201"
       rx="39.3965"
       cy="-156"
       cx="227.944" />
    <text
       style="font-size:14px;text-anchor:middle;font-family:'Times,serif'"
       id="text199"
       font-size="14.00"
       y="-159.8"
       x="227.944">SCM-</text>
    <text
       style="font-size:14px;text-anchor:middle;font-family:'Times,serif'"
       id="text201"
       font-size="14.00"
       y="-144.8"
       x="227.944">DOM1</text>
  </g>
  <g
     class="edge"
     id="edge51"
     transform="translate(4,860)">
    <title
       id="title204">PRP-\nSPO1-&gt;SCM-\nDOM1</title>
    <path
       style="fill:none;stroke:#000000"
       inkscape:connector-curvature="0"
       id="path206"
       d="m 366.516,-817.647 c -71.39,7.792 -235.589,29.28 -276.5718,65.647 -51.0971,45.343 -51,76.686 -51,145 0,0 0,0 0,226 0,90.318 90.8648,163.08 146.5888,199.209" />
    <polygon
       style="fill:#000000;stroke:#000000"
       id="polygon208"
       points="183.838,-178.721 187.593,-184.628 187.593,-184.628 194.155,-176.31 " />
  </g>
  <g
     class="node"
     id="node11"
     transform="translate(4,860)">
    <title
       id="title211">SCM-\nRNG1</title>
    <ellipse
       style="fill:none;stroke:#000000"
       sodipodi:ry="36.540501"
       sodipodi:rx="36.158199"
       sodipodi:cy="-156"
       sodipodi:cx="451.944"
       d="m 488.1022,-156 c 0,20.18076 -16.18858,36.5405 -36.1582,36.5405 -19.96962,0 -36.1582,-16.35974 -36.1582,-36.5405 0,-20.18076 16.18858,-36.5405 36.1582,-36.5405 19.96962,0 36.1582,16.35974 36.1582,36.5405 z"
       id="ellipse213"
       ry="36.540501"
       rx="36.158199"
       cy="-156"
       cx="451.944" />
    <text
       style="font-size:14px;text-anchor:middle;font-family:'Times,serif'"
       id="text215"
       font-size="14.00"
       y="-159.8"
       x="451.944">SCM-</text>
    <text
       style="font-size:14px;text-anchor:middle;font-family:'Times,serif'"
       id="text217"
       font-size="14.00"
       y="-144.8"
       x="451.944">RNG1</text>
  </g>
  <g
     class="edge"
     id="edge52"
     transform="translate(4,860)">
    <title
       id="title220">PRP-\nSPO1-&gt;SCM-\nRNG1</title>
    <path
       style="fill:none;stroke:#000000"
       inkscape:connector-curvature="0"
       id="path222"
       d="m 433.523,-819.905 c 51.675,3.336 151.408,16.512 215.421,67.905 56.899,45.681 77,72.033 77,145 0,0 0,0 0,226 0,117.256 -152.265,184.172 -229.78,210.64" />
    <polygon
       style="fill:#000000;stroke:#000000"
       id="polygon224"
       points="495.025,-173.669 497.24,-167.029 497.24,-167.029 486.646,-167.185 " />
  </g>
  <g
     class="node"
     id="node12"
     transform="translate(4,860)">
    <title
       id="title227">SCM-\nDOM2</title>
    <ellipse
       style="fill:none;stroke:#000000"
       sodipodi:ry="39.696201"
       sodipodi:rx="39.3965"
       sodipodi:cy="-40"
       sodipodi:cx="227.944"
       d="m 267.3405,-40 c 0,21.923607 -17.63841,39.69620132 -39.3965,39.69620132 -21.75809,0 -39.3965,-17.77259432 -39.3965,-39.69620132 0,-21.923607 17.63841,-39.696201 39.3965,-39.696201 21.75809,0 39.3965,17.772594 39.3965,39.696201 z"
       id="ellipse229"
       ry="39.696201"
       rx="39.3965"
       cy="-40"
       cx="227.944" />
    <text
       style="font-size:14px;text-anchor:middle;font-family:'Times,serif'"
       id="text231"
       font-size="14.00"
       y="-43.799999"
       x="227.944">SCM-</text>
    <text
       style="font-size:14px;text-anchor:middle;font-family:'Times,serif'"
       id="text233"
       font-size="14.00"
       y="-28.799999"
       x="227.944">DOM2</text>
  </g>
  <g
     class="edge"
     id="edge53"
     transform="translate(4,860)">
    <title
       id="title236">PRP-\nSPO1-&gt;SCM-\nDOM2</title>
    <path
       style="fill:none;stroke:#000000"
       inkscape:connector-curvature="0"
       id="path238"
       d="m 366.423,-819.026 c -80.029,5.39 -279.1023,23.004 -326.4788,67.026 -48.88776,45.426 -39.000003,78.265 -39.000003,145 0,0 0,0 0,340 0,101.503 115.393803,173.1522 181.633803,205.9194" />
    <polygon
       style="fill:#000000;stroke:#000000"
       id="polygon240"
       points="181.45,-57.7384 184.501,-64.0383 184.501,-64.0383 191.975,-56.5293 " />
  </g>
  <g
     class="node"
     id="node13"
     transform="translate(4,860)">
    <title
       id="title243">SCM-\nRNG2</title>
    <ellipse
       style="fill:none;stroke:#000000"
       sodipodi:ry="36.540501"
       sodipodi:rx="36.158199"
       sodipodi:cy="-40"
       sodipodi:cx="534.94397"
       d="m 571.10217,-40 c 0,20.180761 -16.18858,36.5405006 -36.1582,36.5405006 -19.96962,0 -36.1582,-16.3597396 -36.1582,-36.5405006 0,-20.180761 16.18858,-36.540501 36.1582,-36.540501 19.96962,0 36.1582,16.35974 36.1582,36.540501 z"
       id="ellipse245"
       ry="36.540501"
       rx="36.158199"
       cy="-40"
       cx="534.94397" />
    <text
       style="font-size:14px;text-anchor:middle;font-family:'Times,serif'"
       id="text247"
       font-size="14.00"
       y="-43.799999"
       x="534.94397">SCM-</text>
    <text
       style="font-size:14px;text-anchor:middle;font-family:'Times,serif'"
       id="text249"
       font-size="14.00"
       y="-28.799999"
       x="534.94397">RNG2</text>
  </g>
  <g
     class="edge"
     id="edge54"
     transform="translate(4,860)">
    <title
       id="title252">PRP-\nSPO1-&gt;SCM-\nRNG2</title>
    <path
       style="fill:none;stroke:#000000"
       inkscape:connector-curvature="0"
       id="path254"
       d="m 433.167,-816.94 c 68.484,8.944 222.333,32.191 262.777,64.94 55.318,44.793 68,73.821 68,145 0,0 0,0 0,340 0,103.551 -120.086,175.642 -186.338,207.5351" />
    <polygon
       style="fill:#000000;stroke:#000000"
       id="polygon256"
       points="575.796,-62.4813 578.781,-56.1492 578.781,-56.1492 568.243,-55.0521 " />
  </g>
  <g
     class="node"
     id="node14"
     transform="translate(4,860)">
    <title
       id="title259">SCM-\nSPO</title>
    <ellipse
       style="fill:none;stroke:#000000"
       sodipodi:ry="35.2113"
       sodipodi:rx="35.034302"
       sodipodi:cy="-268"
       sodipodi:cx="491.944"
       d="m 526.9783,-268 c 0,19.44666 -15.68539,35.2113 -35.0343,35.2113 -19.34891,0 -35.0343,-15.76464 -35.0343,-35.2113 0,-19.44666 15.68539,-35.2113 35.0343,-35.2113 19.34891,0 35.0343,15.76464 35.0343,35.2113 z"
       id="ellipse261"
       ry="35.2113"
       rx="35.034302"
       cy="-268"
       cx="491.944" />
    <text
       style="font-size:14px;text-anchor:middle;font-family:'Times,serif'"
       id="text263"
       font-size="14.00"
       y="-271.79999"
       x="491.944">SCM-</text>
    <text
       style="font-size:14px;text-anchor:middle;font-family:'Times,serif'"
       id="text265"
       font-size="14.00"
       y="-256.79999"
       x="491.944">SPO</text>
  </g>
  <g
     class="edge"
     id="edge55"
     transform="translate(4,860)">
    <title
       id="title268">PRP-\nSPO1-&gt;SCM-\nSPO</title>
    <path
       style="fill:none;stroke:#000000"
       inkscape:connector-curvature="0"
       id="path270"
       d="m 433.022,-816.422 c 42.203,7.281 115.626,24.939 164.922,64.422 59.201,47.416 90,69.151 90,145 0,0 0,0 0,111 0,94.893 -99.337,169.723 -156.572,204.963" />
    <polygon
       style="fill:#000000;stroke:#000000"
       id="polygon272"
       points="529.322,-293.888 532.939,-287.895 532.939,-287.895 522.569,-285.724 " />
  </g>
  <g
     class="edge"
     id="edge13"
     transform="translate(4,860)">
    <title
       id="title275">RDFS4-&gt;CAX-\nSCO</title>
    <path
       style="fill:none;stroke:#000000"
       inkscape:connector-curvature="0"
       id="path277"
       d="m 298.151,-681.023 c -4.687,10.448 -9.926,22.127 -14.833,33.065" />
    <polygon
       style="fill:#000000;stroke:#000000"
       id="polygon279"
       points="280.013,-649.142 286.4,-646.277 286.4,-646.277 279.113,-638.586 " />
  </g>
  <g
     class="edge"
     id="edge14"
     transform="translate(4,860)">
    <title
       id="title282">RDFS4-&gt;RDFS8</title>
    <path
       style="fill:none;stroke:#000000"
       inkscape:connector-curvature="0"
       id="path284"
       d="m 324.828,-679.774 c 12.936,37.255 33.661,96.944 47.807,137.684" />
    <polygon
       style="fill:#000000;stroke:#000000"
       id="polygon286"
       points="369.405,-540.721 376.018,-543.017 376.018,-543.017 375.992,-532.423 " />
  </g>
  <g
     class="edge"
     id="edge15"
     transform="translate(4,860)">
    <title
       id="title289">RDFS4-&gt;RDFS12</title>
    <path
       style="fill:none;stroke:#000000"
       inkscape:connector-curvature="0"
       id="path291"
       d="m 338.588,-687.962 c 31.198,33.09 83.4,93.235 113.356,153.962 15.684,31.794 25.78,70.49 31.906,100.75" />
    <polygon
       style="fill:#000000;stroke:#000000"
       id="polygon293"
       points="480.433,-432.482 487.305,-433.818 487.305,-433.818 485.777,-423.334 " />
  </g>
  <g
     class="edge"
     id="edge16"
     transform="translate(4,860)">
    <title
       id="title296">RDFS4-&gt;RDFS13</title>
    <path
       style="fill:none;stroke:#000000"
       inkscape:connector-curvature="0"
       id="path298"
       d="m 277.248,-704.324 c -29.758,10.163 -70.254,29.367 -89.304,62.324 -40.923,70.798 -8.666,108.414 27,182 6.667,13.754 16.083,27.374 25.483,39.247" />
    <polygon
       style="fill:#000000;stroke:#000000"
       id="polygon300"
       points="237.862,-418.362 243.282,-422.791 243.282,-422.791 246.899,-412.833 " />
  </g>
  <g
     class="edge"
     id="edge1"
     transform="translate(4,860)">
    <title
       id="title303">CAX-\nSCO-&gt;CAX-\nSCO</title>
    <path
       style="fill:none;stroke:#000000"
       inkscape:connector-curvature="0"
       id="path305"
       d="m 294.107,-625.972 c 12.812,-1.767 23.837,4.89 23.837,19.972 0,10.84 -5.695,17.328 -13.656,19.464" />
    <polygon
       style="fill:#000000;stroke:#000000"
       id="polygon307"
       points="303.92,-590.022 304.269,-583.031 304.269,-583.031 294.107,-586.028 " />
  </g>
  <g
     class="edge"
     id="edge2"
     transform="translate(4,860)">
    <title
       id="title310">CAX-\nSCO-&gt;RDFS8</title>
    <path
       style="fill:none;stroke:#000000"
       inkscape:connector-curvature="0"
       id="path312"
       d="m 288.547,-579.371 c 17.552,16.265 41.689,37.299 61.843,53.906" />
    <polygon
       style="fill:#000000;stroke:#000000"
       id="polygon314"
       points="348.22,-522.718 352.646,-528.141 352.646,-528.141 358.18,-519.107 " />
  </g>
  <g
     class="edge"
     id="edge3"
     transform="translate(4,860)">
    <title
       id="title317">CAX-\nSCO-&gt;RDFS12</title>
    <path
       style="fill:none;stroke:#000000"
       inkscape:connector-curvature="0"
       id="path319"
       d="m 279.035,-573.318 c 17.031,37.258 45.558,96.206 62.909,113.318 28.521,28.127 69.412,48.186 101.298,60.765" />
    <polygon
       style="fill:#000000;stroke:#000000"
       id="polygon321"
       points="442.234,-395.873 444.734,-402.412 444.734,-402.412 452.825,-395.571 " />
  </g>
  <g
     class="edge"
     id="edge4"
     transform="translate(4,860)">
    <title
       id="title324">CAX-\nSCO-&gt;RDFS13</title>
    <path
       style="fill:none;stroke:#000000"
       inkscape:connector-curvature="0"
       id="path326"
       d="m 261.449,-570.799 c -0.357,36.742 2.049,95.505 5.472,137.512" />
    <polygon
       style="fill:#000000;stroke:#000000"
       id="polygon328"
       points="263.44,-432.921 270.414,-433.524 270.414,-433.524 267.788,-423.26 " />
  </g>
  <g
     class="edge"
     id="edge17"
     transform="translate(4,860)">
    <title
       id="title331">RDFS8-&gt;CAX-\nSCO</title>
    <path
       style="fill:none;stroke:#000000"
       inkscape:connector-curvature="0"
       id="path333"
       d="m 362.961,-524.906 c -17.739,-16.37 -41.685,-37.195 -61.528,-53.506" />
    <polygon
       style="fill:#000000;stroke:#000000"
       id="polygon335"
       points="303.457,-581.278 299.039,-575.848 299.039,-575.848 293.491,-584.874 " />
  </g>
  <g
     class="edge"
     id="edge18"
     transform="translate(4,860)">
    <title
       id="title338">RDFS8-&gt;RDFS8</title>
    <path
       style="fill:none;stroke:#000000"
       inkscape:connector-curvature="0"
       id="path340"
       d="m 419.319,-517.1 c 12.815,-1.26 23.625,5.44 23.625,20.1 0,10.537 -5.584,16.962 -13.484,19.275" />
    <polygon
       style="fill:#000000;stroke:#000000"
       id="polygon342"
       points="429.002,-481.2 429.57,-474.223 429.57,-474.223 419.319,-476.9 " />
  </g>
  <g
     class="edge"
     id="edge19"
     transform="translate(4,860)">
    <title
       id="title345">RDFS8-&gt;RDFS12</title>
    <path
       style="fill:none;stroke:#000000"
       inkscape:connector-curvature="0"
       id="path347"
       d="m 412.591,-469.221 c 13.318,14.471 29.982,32.577 44.597,48.457" />
    <polygon
       style="fill:#000000;stroke:#000000"
       id="polygon349"
       points="454.827,-418.161 459.978,-422.901 459.978,-422.901 464.174,-413.173 " />
  </g>
  <g
     class="edge"
     id="edge20"
     transform="translate(4,860)">
    <title
       id="title352">RDFS8-&gt;RDFS13</title>
    <path
       style="fill:none;stroke:#000000"
       inkscape:connector-curvature="0"
       id="path354"
       d="m 362.02,-470.076 c -15.031,15.031 -34.192,34.192 -50.712,50.712" />
    <polygon
       style="fill:#000000;stroke:#000000"
       id="polygon356"
       points="308.525,-421.53 313.475,-416.581 313.475,-416.581 303.929,-411.985 " />
  </g>
  <g
     class="edge"
     id="edge40"
     transform="translate(4,860)">
    <title
       id="title359">RDFS12-&gt;SCM-\nDOM2</title>
    <path
       style="fill:none;stroke:#000000"
       inkscape:connector-curvature="0"
       id="path361"
       d="m 468.385,-347.719 c -36.29,50.856 -108.581,150.554 -174.441,231.719 -10.399,12.816 -22.186,26.4669 -32.893,38.5611" />
    <polygon
       style="fill:#000000;stroke:#000000"
       id="polygon363"
       points="258.233,-79.5366 263.461,-74.8818 263.461,-74.8818 254.197,-69.7404 " />
  </g>
  <g
     class="edge"
     id="edge41"
     transform="translate(4,860)">
    <title
       id="title366">RDFS12-&gt;SCM-\nRNG2</title>
    <path
       style="fill:none;stroke:#000000"
       inkscape:connector-curvature="0"
       id="path368"
       d="m 522.005,-353.241 c 12.427,13.501 25.434,30.788 31.939,49.241 25.883,73.414 8.999,165.335 -5.257,218.7876" />
    <polygon
       style="fill:#000000;stroke:#000000"
       id="polygon370"
       points="545.257,-85.9425 552.006,-84.0829 552.006,-84.0829 545.975,-75.372 " />
  </g>
  <g
     class="edge"
     id="edge42"
     transform="translate(4,860)">
    <title
       id="title373">RDFS12-&gt;SCM-\nSPO</title>
    <path
       style="fill:none;stroke:#000000"
       inkscape:connector-curvature="0"
       id="path375"
       d="m 491.944,-340.249 c 0,8.632 0,17.786 0,26.555" />
    <polygon
       style="fill:#000000;stroke:#000000"
       id="polygon377"
       points="488.444,-313.632 495.444,-313.632 495.444,-313.632 491.944,-303.632 " />
  </g>
  <g
     class="edge"
     id="edge25"
     transform="translate(4,860)">
    <title
       id="title380">RDFS13-&gt;CAX-\nSCO</title>
    <path
       style="fill:none;stroke:#000000"
       inkscape:connector-curvature="0"
       id="path382"
       d="m 278.474,-423.648 c 0.049,-38.827 -2.527,-97.192 -6.021,-137.157" />
    <polygon
       style="fill:#000000;stroke:#000000"
       id="polygon384"
       points="275.934,-561.167 268.965,-560.517 268.965,-560.517 271.521,-570.799 " />
  </g>
  <g
     class="edge"
     id="edge26"
     transform="translate(4,860)">
    <title
       id="title387">RDFS13-&gt;SCM-\nSCO</title>
    <path
       style="fill:none;stroke:#000000"
       inkscape:connector-curvature="0"
       id="path389"
       d="m 250.714,-348.304 c -9.985,13.474 -21.594,29.14 -31.845,42.971" />
    <polygon
       style="fill:#000000;stroke:#000000"
       id="polygon391"
       points="215.832,-307.112 221.456,-302.944 221.456,-302.944 212.69,-296.994 " />
  </g>
  <g
     class="edge"
     id="edge27"
     transform="translate(4,860)">
    <title
       id="title394">RDFS13-&gt;SCM-\nDOM1</title>
    <path
       style="fill:none;stroke:#000000"
       inkscape:connector-curvature="0"
       id="path396"
       d="m 271.372,-340.445 c -3.175,30.19 -8.693,72.258 -17.428,108.445 -2.304,9.545 -5.339,19.586 -8.521,29.109" />
    <polygon
       style="fill:#000000;stroke:#000000"
       id="polygon398"
       points="242.032,-203.793 248.649,-201.511 248.649,-201.511 242.08,-193.199 " />
  </g>
  <g
     class="edge"
     id="edge28"
     transform="translate(4,860)">
    <title
       id="title401">RDFS13-&gt;SCM-\nRNG1</title>
    <path
       style="fill:none;stroke:#000000"
       inkscape:connector-curvature="0"
       id="path403"
       d="m 300.304,-348.906 c 32.598,41.254 89.044,112.689 123.109,155.798" />
    <polygon
       style="fill:#000000;stroke:#000000"
       id="polygon405"
       points="420.762,-190.817 426.254,-195.157 426.254,-195.157 429.708,-185.141 " />
  </g>
  <g
     class="edge"
     id="edge21"
     transform="translate(4,860)">
    <title
       id="title408">SCM-\nSCO-&gt;CAX-\nSCO</title>
    <path
       style="fill:none;stroke:#000000"
       inkscape:connector-curvature="0"
       id="path410"
       d="m 198.749,-302.905 c 6.354,-31.428 16.185,-79.469 25.195,-121.095 10.187,-47.062 22.453,-100.862 30.899,-137.493" />
    <polygon
       style="fill:#000000;stroke:#000000"
       id="polygon412"
       points="258.28,-560.819 251.459,-562.394 251.459,-562.394 257.119,-571.35 " />
  </g>
  <g
     class="edge"
     id="edge22"
     transform="translate(4,860)">
    <title
       id="title415">SCM-\nSCO-&gt;SCM-\nSCO</title>
    <path
       style="fill:none;stroke:#000000"
       inkscape:connector-curvature="0"
       id="path417"
       d="m 220.568,-288.63 c 13.041,-2.106 24.376,4.771 24.376,20.63 0,11.523 -5.984,18.304 -14.258,20.343" />
    <polygon
       style="fill:#000000;stroke:#000000"
       id="polygon419"
       points="230.465,-251.153 230.664,-244.156 230.664,-244.156 220.568,-247.37 " />
  </g>
  <g
     class="edge"
     id="edge23"
     transform="translate(4,860)">
    <title
       id="title422">SCM-\nSCO-&gt;SCM-\nDOM1</title>
    <path
       style="fill:none;stroke:#000000"
       inkscape:connector-curvature="0"
       id="path424"
       d="m 202.648,-234.294 c 3.141,9.598 6.639,20.287 10.008,30.58" />
    <polygon
       style="fill:#000000;stroke:#000000"
       id="polygon426"
       points="209.393,-202.431 216.046,-204.608 216.046,-204.608 215.83,-194.016 " />
  </g>
  <g
     class="edge"
     id="edge24"
     transform="translate(4,860)">
    <title
       id="title429">SCM-\nSCO-&gt;SCM-\nRNG1</title>
    <path
       style="fill:none;stroke:#000000"
       inkscape:connector-curvature="0"
       id="path431"
       d="m 224.086,-253.402 c 46.685,19.752 133.335,56.412 185.281,78.389" />
    <polygon
       style="fill:#000000;stroke:#000000"
       id="polygon433"
       points="408.072,-171.761 410.799,-178.208 410.799,-178.208 418.645,-171.088 " />
  </g>
  <g
     class="edge"
     id="edge29"
     transform="translate(4,860)">
    <title
       id="title436">SCM-\nDOM1-&gt;SCM-\nDOM1</title>
    <path
       style="fill:none;stroke:#000000"
       inkscape:connector-curvature="0"
       id="path438"
       d="m 261.317,-176.918 c 12.903,-0.93 23.627,6.043 23.627,20.918 0,10.691 -5.54,17.3 -13.448,19.827" />
    <polygon
       style="fill:#000000;stroke:#000000"
       id="polygon440"
       points="270.887,-139.628 271.633,-132.668 271.633,-132.668 261.317,-135.082 " />
  </g>
  <g
     class="edge"
     id="edge30"
     transform="translate(4,860)">
    <title
       id="title443">SCM-\nDOM1-&gt;SCM-\nDOM2</title>
    <path
       style="fill:none;stroke:#000000"
       inkscape:connector-curvature="0"
       id="path445"
       d="m 221.529,-116.723 c -0.324,8.742 -0.413,18.1442 -0.267,27.2495" />
    <polygon
       style="fill:#000000;stroke:#000000"
       id="polygon447"
       points="217.766,-89.2758 224.763,-89.4584 224.763,-89.4584 221.525,-79.3705 " />
  </g>
  <g
     class="edge"
     id="edge33"
     transform="translate(4,860)">
    <title
       id="title450">SCM-\nRNG1-&gt;SCM-\nRNG1</title>
    <path
       style="fill:none;stroke:#000000"
       inkscape:connector-curvature="0"
       id="path452"
       d="m 482.204,-176.783 c 12.819,-1.567 23.74,5.361 23.74,20.783 0,11.084 -5.642,17.781 -13.575,20.089" />
    <polygon
       style="fill:#000000;stroke:#000000"
       id="polygon454"
       points="491.942,-139.39 492.419,-132.406 492.419,-132.406 482.204,-135.217 " />
  </g>
  <g
     class="edge"
     id="edge34"
     transform="translate(4,860)">
    <title
       id="title457">SCM-\nRNG1-&gt;SCM-\nRNG2</title>
    <path
       style="fill:none;stroke:#000000"
       inkscape:connector-curvature="0"
       id="path459"
       d="m 468.941,-123.245 c 10.056,14.898 22.959,32.6787 34.738,47.8901" />
    <polygon
       style="fill:#000000;stroke:#000000"
       id="polygon461"
       points="501.153,-72.9052 506.657,-77.2292 506.657,-77.2292 510.082,-67.2031 " />
  </g>
  <g
     class="edge"
     id="edge31"
     transform="translate(4,860)">
    <title
       id="title464">SCM-\nDOM2-&gt;SCM-\nDOM1</title>
    <path
       style="fill:none;stroke:#000000"
       inkscape:connector-curvature="0"
       id="path466"
       d="m 234.363,-79.3705 c 0.322,-8.7461 0.409,-18.1497 0.262,-27.2525" />
    <polygon
       style="fill:#000000;stroke:#000000"
       id="polygon468"
       points="238.121,-106.818 231.124,-106.634 231.124,-106.634 234.36,-116.723 " />
  </g>
  <g
     class="edge"
     id="edge32"
     transform="translate(4,860)">
    <title
       id="title471">SCM-\nDOM2-&gt;SCM-\nDOM2</title>
    <path
       style="fill:none;stroke:#000000"
       inkscape:connector-curvature="0"
       id="path473"
       d="m 261.032,-61.6425 c 13.029,-1.0912 23.912,6.123 23.912,21.6425 0,11.2759 -5.745,18.1675 -13.884,20.6747" />
    <polygon
       style="fill:#000000;stroke:#000000"
       id="polygon475"
       points="270.649,-22.802 271.322,-15.8344 271.322,-15.8344 261.032,-18.3575 " />
  </g>
  <g
     class="edge"
     id="edge35"
     transform="translate(4,860)">
    <title
       id="title478">SCM-\nRNG2-&gt;SCM-\nRNG1</title>
    <path
       style="fill:none;stroke:#000000"
       inkscape:connector-curvature="0"
       id="path480"
       d="M 517.972,-72.7187 C 507.904,-87.6365 494.976,-105.452 483.179,-120.684" />
    <polygon
       style="fill:#000000;stroke:#000000"
       id="polygon482"
       points="485.697,-123.145 480.192,-118.82 480.192,-118.82 476.767,-128.846 " />
  </g>
  <g
     class="edge"
     id="edge36"
     transform="translate(4,860)">
    <title
       id="title485">SCM-\nRNG2-&gt;SCM-\nRNG2</title>
    <path
       style="fill:none;stroke:#000000"
       inkscape:connector-curvature="0"
       id="path487"
       d="m 564.657,-61.4513 c 13.054,-1.8984 24.287,5.2521 24.287,21.4513 0,11.7697 -5.93,18.7627 -14.179,20.9789" />
    <polygon
       style="fill:#000000;stroke:#000000"
       id="polygon489"
       points="574.483,-22.5119 574.81,-15.5195 574.81,-15.5195 564.657,-18.5487 " />
  </g>
  <g
     class="edge"
     id="edge37"
     transform="translate(4,860)">
    <title
       id="title492">SCM-\nSPO-&gt;SCM-\nDOM2</title>
    <path
       style="fill:none;stroke:#000000"
       inkscape:connector-curvature="0"
       id="path494"
       d="m 462.772,-247.368 c -17.923,13.072 -40.498,31.458 -56.828,51.368 -25.598,31.211 -14.656,51.259 -43,80 -25.118,25.4694 -60.722,44.7622 -89.06,57.3987" />
    <polygon
       style="fill:#000000;stroke:#000000"
       id="polygon496"
       points="272.364,-61.7571 275.145,-55.3334 275.145,-55.3334 264.578,-54.5718 " />
  </g>
  <g
     class="edge"
     id="edge38"
     transform="translate(4,860)">
    <title
       id="title499">SCM-\nSPO-&gt;SCM-\nRNG2</title>
    <path
       style="fill:none;stroke:#000000"
       inkscape:connector-curvature="0"
       id="path501"
       d="m 503.877,-234.477 c 4.016,11.963 8.201,25.708 11.067,38.477 8.142,36.273 13.298,78.117 16.331,109.1796" />
    <polygon
       style="fill:#000000;stroke:#000000"
       id="polygon503"
       points="527.804,-86.3518 534.773,-87.0067 534.773,-87.0067 532.224,-76.7231 " />
  </g>
  <g
     class="edge"
     id="edge39"
     transform="translate(4,860)">
    <title
       id="title506">SCM-\nSPO-&gt;SCM-\nSPO</title>
    <path
       style="fill:none;stroke:#000000"
       inkscape:connector-curvature="0"
       id="path508"
       d="m 520.568,-288.63 c 13.041,-2.106 24.376,4.771 24.376,20.63 0,11.523 -5.984,18.304 -14.258,20.343" />
    <polygon
       style="fill:#000000;stroke:#000000"
       id="polygon510"
       points="530.465,-251.153 530.664,-244.156 530.664,-244.156 520.568,-247.37 " />
  </g>
  <ellipse
     transform="matrix(0.38030451,0,0,0.38030451,24.746688,91.670692)"
     style="fill:#d3d3d3;stroke:#d3d3d3"
     sodipodi:ry="34.7971"
     sodipodi:rx="34.4716"
     sodipodi:cy="-152"
     sodipodi:cx="34"
     d="m 68.4716,-152 c 0,19.21791 -15.433461,34.7971 -34.4716,34.7971 -19.038139,0 -34.47159958,-15.57919 -34.47159958,-34.7971 0,-19.21791 15.43346058,-34.7971 34.47159958,-34.7971 19.038139,0 34.4716,15.57919 34.4716,34.7971 z"
     id="ellipse12-6"
     ry="34.7971"
     rx="34.4716"
     cy="-152"
     cx="34" />
  <g
     id="g3341"
     transform="translate(-7.6559675,12.812252)">
    <text
       x="66.5187"
       y="26.252956"
       font-size="14.00"
       id="text16-8"
       style="font-size:17.60000038px;font-style:normal;font-variant:normal;font-weight:normal;font-stretch:normal;text-align:start;text-anchor:start;font-family:Ubuntu;-inkscape-font-specification:Ubuntu">Universal Input</text>
  </g>
</svg>
