<?xml version="1.0" encoding="UTF-8" standalone="no"?>
<!-- Generated by graphviz version 2.36.0 (20140111.2315)
 -->

<!-- Title: %3 Pages: 1 -->

<svg
   xmlns:dc="http://purl.org/dc/elements/1.1/"
   xmlns:cc="http://creativecommons.org/ns#"
   xmlns:rdf="http://www.w3.org/1999/02/22-rdf-syntax-ns#"
   xmlns:svg="http://www.w3.org/2000/svg"
   xmlns="http://www.w3.org/2000/svg"
   xmlns:sodipodi="http://sodipodi.sourceforge.net/DTD/sodipodi-0.dtd"
   xmlns:inkscape="http://www.inkscape.org/namespaces/inkscape"
   width="520pt"
   height="300pt"
   viewBox="0.00 0.00 520.00 300.00"
   id="svg2"
   version="1.1"
   inkscape:version="0.48.4 r9939"
   sodipodi:docname="rhodf.svg">
  <metadata
     id="metadata190">
    <rdf:RDF>
      <cc:Work
         rdf:about="">
        <dc:format>image/svg+xml</dc:format>
        <dc:type
           rdf:resource="http://purl.org/dc/dcmitype/StillImage" />
      </cc:Work>
    </rdf:RDF>
  </metadata>
  <defs
     id="defs188" />
  <sodipodi:namedview
     pagecolor="#ffffff"
     bordercolor="#666666"
     borderopacity="1"
     objecttolerance="10"
     gridtolerance="10"
     guidetolerance="10"
     inkscape:pageopacity="0"
     inkscape:pageshadow="2"
     inkscape:window-width="1871"
     inkscape:window-height="1056"
     id="namedview186"
     showgrid="false"
     inkscape:zoom="1.4446735"
     inkscape:cx="81.656323"
     inkscape:cy="152.30659"
     inkscape:window-x="1969"
     inkscape:window-y="24"
     inkscape:window-maximized="1"
     inkscape:current-layer="svg2" />
  <g
     class="node"
     id="node1"
     transform="translate(4,296)">
    <title
       id="title10">PRP-\nDOM</title>
    <ellipse
       style="fill:#d3d3d3;stroke:#d3d3d3"
       sodipodi:ry="34.7971"
       sodipodi:rx="34.4716"
       sodipodi:cy="-152"
       sodipodi:cx="34"
       d="m 68.4716,-152 c 0,19.21791 -15.433461,34.7971 -34.4716,34.7971 -19.038139,0 -34.47159958,-15.57919 -34.47159958,-34.7971 0,-19.21791 15.43346058,-34.7971 34.47159958,-34.7971 19.038139,0 34.4716,15.57919 34.4716,34.7971 z"
       id="ellipse12"
       ry="34.7971"
       rx="34.4716"
       cy="-152"
       cx="34" />
    <text
       style="font-size:14px;text-anchor:middle;font-family:Ubuntu;-inkscape-font-specification:Ubuntu;font-weight:normal;font-style:normal;font-stretch:normal;font-variant:normal"
       id="text14"
       font-size="14.00"
       y="-155.8"
       x="34">PRP-</text>
    <text
       style="font-size:14px;text-anchor:middle;font-family:Ubuntu;-inkscape-font-specification:Ubuntu;font-weight:normal;font-style:normal;font-stretch:normal;font-variant:normal"
       id="text16"
       font-size="14.00"
       y="-140.8"
       x="34">DOM</text>
  </g>
  <g
     class="node"
     id="node4"
     transform="translate(4,296)">
    <title
       id="title19">CAX-\nSCO</title>
    <ellipse
       style="fill:none;stroke:#000000"
       sodipodi:ry="35.2113"
       sodipodi:rx="35.034302"
       sodipodi:cy="-40"
       sodipodi:cx="148"
       d="m 183.0343,-40 c 0,19.446664 -15.68539,35.2112999 -35.0343,35.2112999 -19.34891,0 -35.0343,-15.7646359 -35.0343,-35.2112999 0,-19.446664 15.68539,-35.2113 35.0343,-35.2113 19.34891,0 35.0343,15.764636 35.0343,35.2113 z"
       id="ellipse21"
       ry="35.2113"
       rx="35.034302"
       cy="-40"
       cx="148" />
    <text
       style="font-size:14px;text-anchor:middle;font-family:Ubuntu;-inkscape-font-specification:Ubuntu;font-weight:normal;font-style:normal;font-stretch:normal;font-variant:normal"
       id="text23"
       font-size="14.00"
       y="-43.799999"
       x="148">CAX-</text>
    <text
       style="font-size:14px;text-anchor:middle;font-family:Ubuntu;-inkscape-font-specification:Ubuntu;font-weight:normal;font-style:normal;font-stretch:normal;font-variant:normal"
       id="text25"
       font-size="14.00"
       y="-28.799999"
       x="148">SCO</text>
  </g>
  <g
     class="edge"
     id="edge2"
     transform="translate(4,296)">
    <title
       id="title28">PRP-\nDOM-&gt;CAX-\nSCO</title>
    <path
       style="fill:none;stroke:#000000"
       inkscape:connector-curvature="0"
       id="path30"
       d="m 58.4559,-127.402 c 16.6012,16.019 38.7414,37.3819 56.8521,54.8575" />
    <polygon
       style="fill:#000000;stroke:#000000"
       id="polygon32"
       points="113.169,-69.7449 118.03,-74.7822 118.03,-74.7822 122.796,-65.3198 " />
  </g>
  <g
     class="node"
     id="node2"
     transform="translate(4,296)">
    <title
       id="title35">PRP-\nRNG</title>
    <ellipse
       style="fill:#d3d3d3;stroke:#d3d3d3"
       sodipodi:ry="31.6406"
       sodipodi:rx="31.233"
       sodipodi:cy="-152"
       sodipodi:cx="118"
       d="m 149.233,-152 c 0,17.47462 -13.98349,31.6406 -31.233,31.6406 -17.24951,0 -31.233,-14.16598 -31.233,-31.6406 0,-17.47462 13.98349,-31.6406 31.233,-31.6406 17.24951,0 31.233,14.16598 31.233,31.6406 z"
       id="ellipse37"
       ry="31.6406"
       rx="31.233"
       cy="-152"
       cx="118" />
    <text
       style="font-size:14px;text-anchor:middle;font-family:Ubuntu;-inkscape-font-specification:Ubuntu;font-weight:normal;font-style:normal;font-stretch:normal;font-variant:normal"
       id="text39"
       font-size="14.00"
       y="-155.8"
       x="118">PRP-</text>
    <text
       style="font-size:14px;text-anchor:middle;font-family:Ubuntu;-inkscape-font-specification:Ubuntu;font-weight:normal;font-style:normal;font-stretch:normal;font-variant:normal"
       id="text41"
       font-size="14.00"
       y="-140.8"
       x="118">RNG</text>
  </g>
  <g
     class="edge"
     id="edge3"
     transform="translate(4,296)">
    <title
       id="title44">PRP-\nRNG-&gt;CAX-\nSCO</title>
    <path
       style="fill:none;stroke:#000000"
       inkscape:connector-curvature="0"
       id="path46"
       d="m 126.118,-121.232 c 3.122,11.446 6.752,24.755 10.147,37.2037" />
    <polygon
       style="fill:#000000;stroke:#000000"
       id="polygon48"
       points="132.915,-83.0078 139.669,-84.8497 139.669,-84.8497 138.923,-74.2811 " />
  </g>
  <g
     class="node"
     id="node3"
     transform="translate(4,296)">
    <title
       id="title51">PRP-\nSPO1</title>
    <ellipse
       style="fill:#d3d3d3;stroke:#d3d3d3"
       sodipodi:ry="33.882401"
       sodipodi:rx="33.412601"
       sodipodi:cy="-258"
       sodipodi:cx="322"
       d="m 355.4126,-258 c 0,18.71273 -14.95933,33.8824 -33.4126,33.8824 -18.45327,0 -33.4126,-15.16967 -33.4126,-33.8824 0,-18.71273 14.95933,-33.8824 33.4126,-33.8824 18.45327,0 33.4126,15.16967 33.4126,33.8824 z"
       id="ellipse53"
       ry="33.882401"
       rx="33.412601"
       cy="-258"
       cx="322" />
    <text
       style="font-size:14px;text-anchor:middle;font-family:Ubuntu;-inkscape-font-specification:Ubuntu;font-weight:normal;font-style:normal;font-stretch:normal;font-variant:normal"
       id="text55"
       font-size="14.00"
       y="-261.79999"
       x="322">PRP-</text>
    <text
       style="font-size:14px;text-anchor:middle;font-family:Ubuntu;-inkscape-font-specification:Ubuntu;font-weight:normal;font-style:normal;font-stretch:normal;font-variant:normal"
       id="text57"
       font-size="14.00"
       y="-246.8"
       x="322">SPO1</text>
  </g>
  <g
     class="edge"
     id="edge11"
     transform="translate(4,296)">
    <title
       id="title60">PRP-\nSPO1-&gt;CAX-\nSCO</title>
    <path
       style="fill:none;stroke:#000000"
       inkscape:connector-curvature="0"
       id="path62"
       d="m 290.185,-246.943 c -28.23,10.468 -68.687,29.506 -93.185,58.943 -24.379,29.293 -36.781,71.183 -42.997,102.7564" />
    <polygon
       style="fill:#000000;stroke:#000000"
       id="polygon64"
       points="150.556,-85.8513 157.441,-84.5886 157.441,-84.5886 152.195,-75.384 " />
  </g>
  <g
     class="node"
     id="node5"
     transform="translate(4,296)">
    <title
       id="title67">SCM-\nSCO</title>
    <ellipse
       style="fill:none;stroke:#000000"
       sodipodi:ry="35.2113"
       sodipodi:rx="35.034302"
       sodipodi:cy="-152"
       sodipodi:cx="241"
       d="m 276.0343,-152 c 0,19.44666 -15.68539,35.2113 -35.0343,35.2113 -19.34891,0 -35.0343,-15.76464 -35.0343,-35.2113 0,-19.44666 15.68539,-35.2113 35.0343,-35.2113 19.34891,0 35.0343,15.76464 35.0343,35.2113 z"
       id="ellipse69"
       ry="35.2113"
       rx="35.034302"
       cy="-152"
       cx="241" />
    <text
       style="font-size:14px;text-anchor:middle;font-family:Ubuntu;-inkscape-font-specification:Ubuntu;font-weight:normal;font-style:normal;font-stretch:normal;font-variant:normal"
       id="text71"
       font-size="14.00"
       y="-155.8"
       x="241">SCM-</text>
    <text
       style="font-size:14px;text-anchor:middle;font-family:Ubuntu;-inkscape-font-specification:Ubuntu;font-weight:normal;font-style:normal;font-stretch:normal;font-variant:normal"
       id="text73"
       font-size="14.00"
       y="-140.8"
       x="241">SCO</text>
  </g>
  <g
     class="edge"
     id="edge12"
     transform="translate(4,296)">
    <title
       id="title76">PRP-\nSPO1-&gt;SCM-\nSCO</title>
    <path
       style="fill:none;stroke:#000000"
       inkscape:connector-curvature="0"
       id="path78"
       d="m 301.56,-230.756 c -10.029,12.877 -22.254,28.573 -33.088,42.483" />
    <polygon
       style="fill:#000000;stroke:#000000"
       id="polygon80"
       points="265.665,-190.365 271.188,-186.064 271.188,-186.064 262.282,-180.325 " />
  </g>
  <g
     class="node"
     id="node6"
     transform="translate(4,296)">
    <title
       id="title83">SCM-\nDOM2</title>
    <ellipse
       style="fill:none;stroke:#000000"
       sodipodi:ry="39.696201"
       sodipodi:rx="39.3965"
       sodipodi:cy="-40"
       sodipodi:cx="330"
       d="m 369.3965,-40 c 0,21.923607 -17.63841,39.69620132 -39.3965,39.69620132 -21.75809,0 -39.3965,-17.77259432 -39.3965,-39.69620132 0,-21.923607 17.63841,-39.696201 39.3965,-39.696201 21.75809,0 39.3965,17.772594 39.3965,39.696201 z"
       id="ellipse85"
       ry="39.696201"
       rx="39.3965"
       cy="-40"
       cx="330" />
    <text
       style="font-size:14px;text-anchor:middle;font-family:Ubuntu;-inkscape-font-specification:Ubuntu;font-weight:normal;font-style:normal;font-stretch:normal;font-variant:normal"
       id="text87"
       font-size="14.00"
       y="-43.799999"
       x="330">SCM-</text>
    <text
       style="font-size:14px;text-anchor:middle;font-family:Ubuntu;-inkscape-font-specification:Ubuntu;font-weight:normal;font-style:normal;font-stretch:normal;font-variant:normal"
       id="text89"
       font-size="14.00"
       y="-28.799999"
       x="330">DOM2</text>
  </g>
  <g
     class="edge"
     id="edge13"
     transform="translate(4,296)">
    <title
       id="title92">PRP-\nSPO1-&gt;SCM-\nDOM2</title>
    <path
       style="fill:none;stroke:#000000"
       inkscape:connector-curvature="0"
       id="path94"
       d="m 323.232,-223.723 c 1.326,35.782 3.446,93.031 4.96,133.9099" />
    <polygon
       style="fill:#000000;stroke:#000000"
       id="polygon96"
       points="324.695,-89.6593 331.691,-89.9184 331.691,-89.9184 328.563,-79.7957 " />
  </g>
  <g
     class="node"
     id="node7"
     transform="translate(4,296)">
    <title
       id="title99">SCM-\nRNG2</title>
    <ellipse
       style="fill:none;stroke:#000000"
       sodipodi:ry="36.540501"
       sodipodi:rx="36.158199"
       sodipodi:cy="-40"
       sodipodi:cx="458"
       d="m 494.1582,-40 c 0,20.180761 -16.18858,36.5405006 -36.1582,36.5405006 -19.96962,0 -36.1582,-16.3597396 -36.1582,-36.5405006 0,-20.180761 16.18858,-36.540501 36.1582,-36.540501 19.96962,0 36.1582,16.35974 36.1582,36.540501 z"
       id="ellipse101"
       ry="36.540501"
       rx="36.158199"
       cy="-40"
       cx="458" />
    <text
       style="font-size:14px;text-anchor:middle;font-family:Ubuntu;-inkscape-font-specification:Ubuntu;font-weight:normal;font-style:normal;font-stretch:normal;font-variant:normal"
       id="text103"
       font-size="14.00"
       y="-43.799999"
       x="458">SCM-</text>
    <text
       style="font-size:14px;text-anchor:middle;font-family:Ubuntu;-inkscape-font-specification:Ubuntu;font-weight:normal;font-style:normal;font-stretch:normal;font-variant:normal"
       id="text105"
       font-size="14.00"
       y="-28.799999"
       x="458">RNG2</text>
  </g>
  <g
     class="edge"
     id="edge14"
     transform="translate(4,296)">
    <title
       id="title108">PRP-\nSPO1-&gt;SCM-\nRNG2</title>
    <path
       style="fill:none;stroke:#000000"
       inkscape:connector-curvature="0"
       id="path110"
       d="m 354.475,-248.628 c 29.523,9.462 71.573,27.979 92.525,60.628 19.187,29.897 20.8,70.591 18.257,101.5835" />
    <polygon
       style="fill:#000000;stroke:#000000"
       id="polygon112"
       points="461.759,-86.6042 468.725,-85.9133 468.725,-85.9133 464.255,-76.3076 " />
  </g>
  <g
     class="node"
     id="node8"
     transform="translate(4,296)">
    <title
       id="title115">SCM-\nSPO</title>
    <ellipse
       style="fill:none;stroke:#000000"
       sodipodi:ry="35.2113"
       sodipodi:rx="35.034302"
       sodipodi:cy="-152"
       sodipodi:cx="385"
       d="m 420.0343,-152 c 0,19.44666 -15.68539,35.2113 -35.0343,35.2113 -19.34891,0 -35.0343,-15.76464 -35.0343,-35.2113 0,-19.44666 15.68539,-35.2113 35.0343,-35.2113 19.34891,0 35.0343,15.76464 35.0343,35.2113 z"
       id="ellipse117"
       ry="35.2113"
       rx="35.034302"
       cy="-152"
       cx="385" />
    <text
       style="font-size:14px;text-anchor:middle;font-family:Ubuntu;-inkscape-font-specification:Ubuntu;font-weight:normal;font-style:normal;font-stretch:normal;font-variant:normal"
       id="text119"
       font-size="14.00"
       y="-155.8"
       x="385">SCM-</text>
    <text
       style="font-size:14px;text-anchor:middle;font-family:Ubuntu;-inkscape-font-specification:Ubuntu;font-weight:normal;font-style:normal;font-stretch:normal;font-variant:normal"
       id="text121"
       font-size="14.00"
       y="-140.8"
       x="385">SPO</text>
  </g>
  <g
     class="edge"
     id="edge15"
     transform="translate(4,296)">
    <title
       id="title124">PRP-\nSPO1-&gt;SCM-\nSPO</title>
    <path
       style="fill:none;stroke:#000000"
       inkscape:connector-curvature="0"
       id="path126"
       d="m 339.215,-228.582 c 6.977,11.519 15.141,24.995 22.627,37.353" />
    <polygon
       style="fill:#000000;stroke:#000000"
       id="polygon128"
       points="358.972,-189.212 364.959,-192.838 364.959,-192.838 367.147,-182.472 " />
  </g>
  <g
     class="edge"
     id="edge1"
     transform="translate(4,296)">
    <title
       id="title131">CAX-\nSCO-&gt;CAX-\nSCO</title>
    <path
       style="fill:none;stroke:#000000"
       inkscape:connector-curvature="0"
       id="path133"
       d="M 176.624,-60.6296 C 189.664,-62.7359 201,-55.8594 201,-40 c 0,11.5228 -5.984,18.3037 -14.258,20.3425" />
    <polygon
       style="fill:#000000;stroke:#000000"
       id="polygon135"
       points="186.521,-23.1527 186.72,-16.1555 186.72,-16.1555 176.624,-19.3704 " />
  </g>
  <g
     class="edge"
     id="edge4"
     transform="translate(4,296)">
    <title
       id="title138">SCM-\nSCO-&gt;CAX-\nSCO</title>
    <path
       style="fill:none;stroke:#000000"
       inkscape:connector-curvature="0"
       id="path140"
       d="m 218.487,-124.372 c -12.451,14.727 -28.063,33.1926 -41.427,48.9995" />
    <polygon
       style="fill:#000000;stroke:#000000"
       id="polygon142"
       points="174.089,-77.279 179.435,-72.7595 179.435,-72.7595 170.305,-67.3827 " />
  </g>
  <g
     class="edge"
     id="edge5"
     transform="translate(4,296)">
    <title
       id="title145">SCM-\nSCO-&gt;SCM-\nSCO</title>
    <path
       style="fill:none;stroke:#000000"
       inkscape:connector-curvature="0"
       id="path147"
       d="m 270.431,-171.637 c 12.698,-1.608 23.569,4.938 23.569,19.637 0,10.565 -5.616,16.918 -13.49,19.059" />
    <polygon
       style="fill:#000000;stroke:#000000"
       id="polygon149"
       points="280.214,-136.43 280.615,-129.441 280.615,-129.441 270.431,-132.363 " />
  </g>
  <g
     class="edge"
     id="edge6"
     transform="translate(4,296)">
    <title
       id="title152">SCM-\nDOM2-&gt;SCM-\nDOM2</title>
    <path
       style="fill:none;stroke:#000000"
       inkscape:connector-curvature="0"
       id="path154"
       d="M 363.372,-60.918 C 376.275,-61.8477 387,-54.875 387,-40 c 0,10.6914 -5.54,17.3004 -13.448,19.8271" />
    <polygon
       style="fill:#000000;stroke:#000000"
       id="polygon156"
       points="372.942,-23.6277 373.688,-16.6675 373.688,-16.6675 363.372,-19.082 " />
  </g>
  <g
     class="edge"
     id="edge7"
     transform="translate(4,296)">
    <title
       id="title159">SCM-\nRNG2-&gt;SCM-\nRNG2</title>
    <path
       style="fill:none;stroke:#000000"
       inkscape:connector-curvature="0"
       id="path161"
       d="M 488.26,-60.7834 C 501.079,-62.3497 512,-55.4219 512,-40 c 0,11.0845 -5.642,17.7809 -13.575,20.0893" />
    <polygon
       style="fill:#000000;stroke:#000000"
       id="polygon163"
       points="497.998,-23.3898 498.475,-16.4061 498.475,-16.4061 488.26,-19.2166 " />
  </g>
  <g
     class="edge"
     id="edge8"
     transform="translate(4,296)">
    <title
       id="title166">SCM-\nSPO-&gt;SCM-\nDOM2</title>
    <path
       style="fill:none;stroke:#000000"
       inkscape:connector-curvature="0"
       id="path168"
       d="m 369.533,-120.066 c -5.465,10.931 -11.721,23.4412 -17.618,35.2362" />
    <polygon
       style="fill:#000000;stroke:#000000"
       id="polygon170"
       points="348.626,-86.0772 354.887,-82.9467 354.887,-82.9467 347.284,-75.5677 " />
  </g>
  <g
     class="edge"
     id="edge9"
     transform="translate(4,296)">
    <title
       id="title173">SCM-\nSPO-&gt;SCM-\nRNG2</title>
    <path
       style="fill:none;stroke:#000000"
       inkscape:connector-curvature="0"
       id="path175"
       d="m 404.18,-122.099 c 8.676,13.073 19.051,28.7073 28.366,42.7443" />
    <polygon
       style="fill:#000000;stroke:#000000"
       id="polygon177"
       points="429.739,-77.2551 435.572,-81.1257 435.572,-81.1257 438.185,-70.8582 " />
  </g>
  <g
     class="edge"
     id="edge10"
     transform="translate(4,296)">
    <title
       id="title180">SCM-\nSPO-&gt;SCM-\nSPO</title>
    <path
       style="fill:none;stroke:#000000"
       inkscape:connector-curvature="0"
       id="path182"
       d="m 414.431,-171.637 c 12.698,-1.608 23.569,4.938 23.569,19.637 0,10.565 -5.616,16.918 -13.49,19.059" />
    <polygon
       style="fill:#000000;stroke:#000000"
       id="polygon184"
       points="424.214,-136.43 424.615,-129.441 424.615,-129.441 414.431,-132.363 " />
  </g>
  <ellipse
     transform="matrix(0.38030451,0,0,0.38030451,25.206086,91.850242)"
     style="fill:#d3d3d3;stroke:#d3d3d3"
     sodipodi:ry="34.7971"
     sodipodi:rx="34.4716"
     sodipodi:cy="-152"
     sodipodi:cx="34"
     d="m 68.4716,-152 c 0,19.21791 -15.433461,34.7971 -34.4716,34.7971 -19.038139,0 -34.47159958,-15.57919 -34.47159958,-34.7971 0,-19.21791 15.43346058,-34.7971 34.47159958,-34.7971 19.038139,0 34.4716,15.57919 34.4716,34.7971 z"
     id="ellipse12-6"
     ry="34.7971"
     rx="34.4716"
     cy="-152"
     cx="34" />
  <g
     id="g3341"
     transform="translate(-7.196575,12.9918)">
    <text
       x="66.5187"
       y="26.252956"
       font-size="14.00"
       id="text16-8"
       style="font-size:17.60000038px;font-style:normal;font-variant:normal;font-weight:normal;font-stretch:normal;text-align:start;text-anchor:start;font-family:Ubuntu;-inkscape-font-specification:Ubuntu">Universal Input</text>
  </g>
</svg>
